<svg xmlns="http://www.w3.org/2000/svg" xmlns:xlink="http://www.w3.org/1999/xlink" fill="none" version="1.1" width="20"
  height="20" viewBox="0 0 20 20">
  <defs>
    <clipPath id="master_svg0_6199_138421">
      <rect x="0" y="0" width="20" height="20" rx="0" />
    </clipPath>
  </defs>
  <g clip-path="url(#master_svg0_6199_138421)">
    <g>
      <g style="opacity:0;">
        <rect x="0" y="0" width="20" height="20" rx="0" fill="#000000" fill-opacity="1" />
      </g>
    </g>
    <g>
      <path
        d="M9.16699,0.83331298828125L10.83366,0.83331298828125L10.83366,5.00000298828125L17.4997,5.00000298828125L17.4997,13.33331298828125L16.6663,13.33331298828125L16.6663,13.33331298828125L10.83366,13.33331298828125L10.83366,19.16661298828125L9.16699,19.16661298828125L9.16699,13.33331298828125L3.333008,13.33331298828125L3.333008,13.33331298828125L2.5,13.33331298828125L2.5,5.00000298828125L9.16699,5.00000298828125L9.16699,0.83331298828125ZM9.16699,6.66666298828125L4.16667,6.66666298828125L4.16667,11.66671298828125L9.16699,11.66671298828125L9.16699,6.66666298828125ZM15.833,11.66671298828125L15.833,6.66666298828125L10.83366,6.66666298828125L10.83366,11.66671298828125L15.833,11.66671298828125Z"
        fill-rule="evenodd" fill="#000000" fill-opacity="1" />
    </g>
  </g>
</svg>