<svg xmlns="http://www.w3.org/2000/svg" xmlns:xlink="http://www.w3.org/1999/xlink" fill="none" version="1.1" width="20"
  height="20" viewBox="0 0 20 20">
  <defs>
    <clipPath id="master_svg0_6199_138509">
      <rect x="0" y="0" width="20" height="20" rx="0" />
    </clipPath>
  </defs>
  <g clip-path="url(#master_svg0_6199_138509)">
    <g>
      <g style="opacity:0;">
        <rect x="0" y="0" width="20" height="20" rx="0" fill="#000000" fill-opacity="1" />
      </g>
    </g>
    <g>
      <path
        d="M8.3330078125,13.21799L8.3330078125,10L11.6663378125,10L11.6663378125,13.21799C11.6663378125,14.995239999999999,10.2255978125,16.43599,8.4483478125,16.43599L8.3330078125,16.43599L8.3330078125,14.82699L8.3906779125,14.82699C9.2200608125,14.82699,9.9028778125,14.19946,9.9902378125,13.39331L9.9996778125,13.21799L8.3330078125,13.21799Z"
        fill-rule="evenodd" fill="#191919" fill-opacity="1" />
    </g>
    <g>
      <path
        d="M12.5,5.83331298828125Q12.5,5.95613298828125,12.487960000000001,6.0783529882812495Q12.47592,6.2005829882812495,12.45196,6.32104298828125Q12.428,6.44149298828125,12.39235,6.559022988281249Q12.3567,6.67655298828125,12.3097,6.79002298828125Q12.262699999999999,6.903492988281251,12.204799999999999,7.01180298828125Q12.14691,7.12012298828125,12.078669999999999,7.22224298828125Q12.01044,7.32435298828125,11.93253,7.41929298828125Q11.854610000000001,7.51423298828125,11.767769999999999,7.60108298828125Q11.68092,7.68792298828125,11.58598,7.76584298828125Q11.49104,7.84375298828125,11.38893,7.91198298828125Q11.28681,7.98022298828125,11.17849,8.038112988281249Q11.07018,8.096012988281249,10.956710000000001,8.14301298828125Q10.84324,8.19001298828125,10.72571,8.22566298828125Q10.60818,8.26131298828125,10.487729999999999,8.28527298828125Q10.36727,8.30923298828125,10.24504,8.321272988281251Q10.12282,8.33331298828125,10,8.33331298828125Q9.87718,8.33331298828125,9.75496,8.321272988281251Q9.63273,8.30923298828125,9.512270000000001,8.28527298828125Q9.39182,8.26131298828125,9.27429,8.22566298828125Q9.15676,8.19001298828125,9.04329,8.14301298828125Q8.92982,8.096012988281249,8.82151,8.038112988281249Q8.71319,7.98022298828125,8.61107,7.91198298828125Q8.50896,7.84375298828125,8.414017,7.76584298828125Q8.319078,7.68792298828125,8.232233,7.60108298828125Q8.145388,7.51423298828125,8.067474,7.41929298828125Q7.98956,7.32435298828125,7.921326,7.22224298828125Q7.853092,7.12012298828125,7.795197,7.01180298828125Q7.737301,6.903492988281251,7.690301,6.79002298828125Q7.643301,6.67655298828125,7.607649,6.559022988281249Q7.5719972,6.44149298828125,7.5480368,6.32104298828125Q7.5240764,6.2005829882812495,7.5120382,6.0783529882812495Q7.5,5.95613298828125,7.5,5.83331298828125Q7.5,5.71049298828125,7.5120382,5.5882729882812505Q7.5240764,5.4660429882812505,7.5480368,5.34558298828125Q7.5719972,5.22513298828125,7.607649,5.10760298828125Q7.643301,4.99007298828125,7.690301,4.87660298828125Q7.737301,4.76313298828125,7.795197,4.65482298828125Q7.853092,4.54650298828125,7.921326,4.44438298828125Q7.98956,4.34227298828125,8.067474,4.24732998828125Q8.145388,4.15239098828125,8.232233,4.06554598828125Q8.319078,3.97870098828125,8.414017,3.90078698828125Q8.50896,3.82287298828125,8.61107,3.75463898828125Q8.71319,3.68640498828125,8.82151,3.62850998828125Q8.92982,3.57061398828125,9.04329,3.52361398828125Q9.15676,3.47661398828125,9.27429,3.44096198828125Q9.39182,3.40531018828125,9.512270000000001,3.38134978828125Q9.63273,3.35738938828125,9.75496,3.34535118828125Q9.87718,3.33331298828125,10,3.33331298828125Q10.12282,3.33331298828125,10.24504,3.34535118828125Q10.36727,3.35738938828125,10.487729999999999,3.38134978828125Q10.60818,3.40531018828125,10.72571,3.44096198828125Q10.84324,3.47661398828125,10.956710000000001,3.52361398828125Q11.07018,3.57061398828125,11.17849,3.62850998828125Q11.28681,3.68640498828125,11.38893,3.75463898828125Q11.49104,3.82287298828125,11.58598,3.90078698828125Q11.68092,3.97870098828125,11.767769999999999,4.06554598828125Q11.854610000000001,4.15239098828125,11.93253,4.24732998828125Q12.01044,4.34227298828125,12.078669999999999,4.44438298828125Q12.14691,4.54650298828125,12.204799999999999,4.65482298828125Q12.262699999999999,4.76313298828125,12.3097,4.87660298828125Q12.3567,4.99007298828125,12.39235,5.10760298828125Q12.428,5.22513298828125,12.45196,5.34558298828125Q12.47592,5.4660429882812505,12.487960000000001,5.5882729882812505Q12.5,5.71049298828125,12.5,5.83331298828125ZM10.83333,5.83331298828125Q10.83333,5.7512329882812505,10.81732,5.67073298828125Q10.80131,5.5902429882812505,10.7699,5.51441298828125Q10.73849,5.43858298828125,10.69289,5.37033298828125Q10.64729,5.30209298828125,10.58926,5.2440529882812505Q10.53122,5.18602298828125,10.46298,5.14042298828125Q10.39473,5.0948229882812495,10.3189,5.06341298828125Q10.24307,5.03200298828125,10.16258,5.0159929882812495Q10.08208,4.99998298828125,10,4.99998298828125Q9.91792,4.99998298828125,9.83742,5.0159929882812495Q9.75693,5.03200298828125,9.6811,5.06341298828125Q9.60527,5.0948229882812495,9.53702,5.14042298828125Q9.46878,5.18602298828125,9.41074,5.2440529882812505Q9.35271,5.30209298828125,9.30711,5.37033298828125Q9.26151,5.43858298828125,9.2301,5.51441298828125Q9.19869,5.5902429882812505,9.18268,5.67073298828125Q9.16667,5.7512329882812505,9.16667,5.83331298828125Q9.16667,5.9153929882812495,9.18268,5.99589298828125Q9.19869,6.0763829882812495,9.2301,6.15221298828125Q9.26151,6.22804298828125,9.30711,6.29628298828125Q9.35271,6.364532988281249,9.41074,6.4225729882812495Q9.46878,6.48060298828125,9.53702,6.52620298828125Q9.60527,6.5718029882812505,9.6811,6.60321298828125Q9.75693,6.63462298828125,9.83742,6.6506329882812505Q9.91792,6.66664298828125,10,6.66664298828125Q10.08208,6.66664298828125,10.16258,6.6506329882812505Q10.24307,6.63462298828125,10.3189,6.60321298828125Q10.39473,6.5718029882812505,10.46297,6.52620298828125Q10.53122,6.48060298828125,10.58926,6.4225729882812495Q10.64729,6.364532988281249,10.69289,6.29629298828125Q10.73849,6.22804298828125,10.7699,6.15221298828125Q10.80131,6.0763829882812495,10.81732,5.99589298828125Q10.83333,5.9153929882812495,10.83333,5.83331298828125Z"
        fill="#000000" fill-opacity="1" />
    </g>
  </g>
</svg>