<svg xmlns="http://www.w3.org/2000/svg" xmlns:xlink="http://www.w3.org/1999/xlink" fill="none" version="1.1" width="20"
  height="20" viewBox="0 0 20 20">
  <defs>
    <clipPath id="master_svg0_6199_138454">
      <rect x="0" y="0" width="20" height="20" rx="0" />
    </clipPath>
  </defs>
  <g clip-path="url(#master_svg0_6199_138454)">
    <g>
      <g style="opacity:0;">
        <rect x="0" y="0" width="20" height="20" rx="0" fill="#000000" fill-opacity="1" />
      </g>
    </g>
    <g>
      <path
        d="M9.1669921875,1.66668701171875L1.6669921875,1.66668701171875L1.6669921875,18.33338701171875L9.1669921875,18.33338701171875L9.1669921875,16.66668701171875L3.3336621875,16.66668701171875L3.3336621875,10.83335701171875L9.1669921875,10.83335701171875L9.1669921875,9.16668701171875L3.3336621875,9.16668701171875L3.3336621875,3.33335701171875L9.1669921875,3.33335701171875L9.1669921875,1.66668701171875ZM12.4996921875,7.08331701171875L10.8330121875,7.08331701171875L10.8330121875,18.33328701171875L12.4996921875,18.33328701171875L12.4996921875,10.83331701171875Q12.4996921875,10.73096701171875,12.5096921875,10.62910701171875Q12.5196921875,10.52725701171875,12.5396921875,10.42687701171875Q12.5596921875,10.32649701171875,12.5893921875,10.22855701171875Q12.6190921875,10.13061701171875,12.6582921875,10.03605701171875Q12.6973921875,9.94149701171875,12.7456921875,9.85123701171875Q12.7938921875,9.76097701171875,12.8507921875,9.67587701171875Q12.9075921875,9.59077701171875,12.9725921875,9.51165701171875Q13.0374921875,9.43254701171875,13.1098921875,9.36017701171875Q13.1821921875,9.287807011718751,13.2613921875,9.22287701171875Q13.3404921875,9.15794701171875,13.4255921875,9.10108701171875Q13.5106921875,9.04422701171875,13.6008921875,8.99597701171875Q13.6911921875,8.94772701171875,13.7857921875,8.90856701171875Q13.8802921875,8.86939701171875,13.9782921875,8.83968701171875Q14.0761921875,8.80997701171875,14.1765921875,8.79000701171875Q14.2769921875,8.77004701171875,14.3787921875,8.76000701171875Q14.4806921875,8.74997701171875,14.5829921875,8.74997701171875Q14.6853921875,8.74997701171875,14.7871921875,8.76000701171875Q14.8890921875,8.77004701171875,14.9894921875,8.79000701171875Q15.0897921875,8.80997701171875,15.1877921875,8.83968701171875Q15.2856921875,8.86939701171875,15.3802921875,8.90856701171875Q15.4747921875,8.94772701171875,15.5650921875,8.99597701171875Q15.6553921875,9.04422701171875,15.7404921875,9.10108701171875Q15.8255921875,9.15794701171875,15.9046921875,9.22287701171875Q15.9837921875,9.287807011718751,16.056192187500002,9.36017701171875Q16.1284921875,9.43254701171875,16.1934921875,9.51165701171875Q16.2583921875,9.59077701171875,16.3151921875,9.67587701171875Q16.3720921875,9.76097701171875,16.4203921875,9.85123701171875Q16.4685921875,9.94149701171875,16.5077921875,10.03605701171875Q16.5468921875,10.13061701171875,16.576592187499998,10.22855701171875Q16.6063921875,10.32649701171875,16.6262921875,10.42687701171875Q16.646292187500002,10.52725701171875,16.6562921875,10.62910701171875Q16.666292187499998,10.73096701171875,16.666292187499998,10.83331701171875L16.6669921875,10.83331701171875L16.6669921875,18.33328701171875L18.3336921875,18.33328701171875L18.3336921875,10.83331701171875L18.3329921875,10.83331701171875Q18.3329921875,10.64908701171875,18.3149921875,10.46574701171875Q18.2968921875,10.28240701171875,18.2609921875,10.10172701171875Q18.2249921875,9.92103701171875,18.1714921875,9.74474701171875Q18.1180921875,9.56844701171875,18.0475921875,9.39824701171875Q17.9770921875,9.22804701171875,17.8901921875,9.06557701171875Q17.8033921875,8.903107011718749,17.7009921875,8.74992701171875Q17.5986921875,8.596747011718751,17.481792187499998,8.45433701171875Q17.3648921875,8.311927011718751,17.234692187500002,8.181667011718751Q17.1043921875,8.05139701171875,16.9619921875,7.93452701171875Q16.8195921875,7.81765701171875,16.6663921875,7.71529701171875Q16.5131921875,7.61295701171875,16.350792187499998,7.52610701171875Q16.1882921875,7.43926701171875,16.018092187500002,7.36876701171875Q15.8478921875,7.29826701171875,15.6715921875,7.24478701171875Q15.4952921875,7.19130701171875,15.3145921875,7.15536701171875Q15.1338921875,7.11942701171875,14.9505921875,7.10136701171875Q14.7671921875,7.08331701171875,14.5829921875,7.08331701171875Q14.0267921875,7.08331701171875,13.4944921875,7.24477701171875Q12.9621921875,7.40623701171875,12.4996921875,7.71526701171875L12.4996921875,7.08331701171875Z"
        fill-rule="evenodd" fill="#000000" fill-opacity="1" />
    </g>
  </g>
</svg>