<svg xmlns="http://www.w3.org/2000/svg" xmlns:xlink="http://www.w3.org/1999/xlink" fill="none" version="1.1" width="20" height="20" viewBox="0 0 20 20"><defs><clipPath id="master_svg0_6199_138440"><rect x="0" y="0" width="20" height="20" rx="0"/></clipPath></defs><g clip-path="url(#master_svg0_6199_138440)"><g><g style="opacity:0;"><rect x="0" y="0" width="20" height="20" rx="0" fill="#000000" fill-opacity="1"/></g></g><g><path d="M18.3336921875,10.00001701171875Q18.3336921875,10.20458701171875,18.3235921875,10.40891701171875Q18.3135921875,10.61324701171875,18.2934921875,10.81682701171875Q18.2734921875,11.02041701171875,18.2434921875,11.22277701171875Q18.2133921875,11.42512701171875,18.1734921875,11.62577701171875Q18.1335921875,11.82638701171875,18.0838921875,12.02488701171875Q18.0341921875,12.22328701171875,17.9747921875,12.41908701171875Q17.9153921875,12.61478701171875,17.8464921875,12.80738701171875Q17.7775921875,13.00008701171875,17.6992921875,13.18908701171875Q17.6209921875,13.37808701171875,17.5335921875,13.56298701171875Q17.4460921875,13.74788701171875,17.3496921875,13.92828701171875Q17.253192187499998,14.10878701171875,17.148092187499998,14.28418701171875Q17.0428921875,14.45968701171875,16.9291921875,14.62978701171875Q16.815592187500002,14.79988701171875,16.693692187499998,14.96418701171875Q16.571892187499998,15.12848701171875,16.442092187500002,15.28658701171875Q16.3122921875,15.44478701171875,16.1748921875,15.59638701171875Q16.0374921875,15.74788701171875,15.8928921875,15.89258701171875Q15.7481921875,16.03718701171875,15.5966921875,16.17458701171875Q15.4450921875,16.31198701171875,15.2868921875,16.441787011718752Q15.1287921875,16.571587011718748,14.9644921875,16.693387011718748Q14.8001921875,16.815287011718752,14.6300921875,16.92888701171875Q14.4599921875,17.04258701171875,14.2844921875,17.147787011718748Q14.1090921875,17.252887011718748,13.9285921875,17.34938701171875Q13.7481921875,17.44578701171875,13.5632921875,17.53328701171875Q13.3783921875,17.62068701171875,13.1893921875,17.69898701171875Q13.0003921875,17.77728701171875,12.8076921875,17.84618701171875Q12.6150921875,17.91508701171875,12.4193921875,17.97448701171875Q12.2235921875,18.03388701171875,12.0251921875,18.08358701171875Q11.8266921875,18.13328701171875,11.6260721875,18.17318701171875Q11.4254321875,18.21308701171875,11.2230821875,18.24318701171875Q11.0207221875,18.27318701171875,10.8171321875,18.29318701171875Q10.6135521875,18.31328701171875,10.4092221875,18.32328701171875Q10.2048921875,18.33338701171875,10.0003221875,18.33338701171875Q9.7957521875,18.33338701171875,9.5914321875,18.32328701171875Q9.3871021875,18.31328701171875,9.1835121875,18.29318701171875Q8.979932187500001,18.27318701171875,8.777572187499999,18.24318701171875Q8.5752121875,18.21308701171875,8.3745721875,18.17318701171875Q8.1739321875,18.13328701171875,7.9754921875,18.08358701171875Q7.7770521875,18.03388701171875,7.5812821875,17.97448701171875Q7.3855221875,17.91508701171875,7.1929121875,17.84618701171875Q7.0002921875,17.77728701171875,6.8112921875,17.69898701171875Q6.6222921875,17.62068701171875,6.4373621875,17.53328701171875Q6.2524321875,17.44578701171875,6.0720221875,17.34938701171875Q5.8916021875,17.252887011718748,5.7161321875,17.147787011718748Q5.5406721875,17.04258701171875,5.3705721875000005,16.92888701171875Q5.2004821875000005,16.815287011718752,5.0361621875,16.693387011718748Q4.8718521875,16.571587011718748,4.7137121875000005,16.441787011718752Q4.555582187500001,16.31198701171875,4.4040021875,16.17458701171875Q4.252422187500001,16.03718701171875,4.1077721875,15.89258701171875Q3.9631121875,15.74788701171875,3.8257321875,15.59638701171875Q3.6883521875,15.44478701171875,3.5585721875000003,15.28658701171875Q3.4287921875,15.12848701171875,3.3069321875,14.96418701171875Q3.1850621875,14.79988701171875,3.0714121875,14.62978701171875Q2.9577621875,14.45968701171875,2.8525821875,14.28418701171875Q2.7474121875,14.10878701171875,2.6509811875000002,13.92828701171875Q2.5545471875,13.74788701171875,2.4670811875,13.56298701171875Q2.3796151875,13.37808701171875,2.3013291875,13.18908701171875Q2.2230431875,13.00008701171875,2.1541251875,12.80738701171875Q2.0852071875,12.61478701171875,2.0258231875,12.41908701171875Q1.9664381875,12.22328701171875,1.9167321875,12.02488701171875Q1.8670251875,11.82638701171875,1.8271151875,11.62576701171875Q1.7872051875,11.42512701171875,1.7571878875,11.22277701171875Q1.7271709875,11.02041701171875,1.7071194875,10.81682701171875Q1.6870678875,10.61324701171875,1.6770300875,10.40891701171875Q1.6669921875,10.20458701171875,1.6669921875,10.00001701171875Q1.6669921875,9.79544701171875,1.6770300875,9.59112701171875Q1.6870678875,9.38679701171875,1.7071194875,9.18320701171875Q1.7271709875,8.979627011718751,1.7571878875,8.777267011718749Q1.7872051875,8.57490701171875,1.8271151875,8.37426701171875Q1.8670251875,8.17362701171875,1.9167321875,7.97518701171875Q1.9664381875,7.77674701171875,2.0258231875,7.58097701171875Q2.0852071875,7.38521701171875,2.1541251875,7.19260701171875Q2.2230431875,6.99998701171875,2.3013291875,6.81098701171875Q2.3796151875,6.62198701171875,2.4670811875,6.43705701171875Q2.5545471875,6.25212701171875,2.6509811875000002,6.07171701171875Q2.7474121875,5.89129701171875,2.8525821875,5.71582701171875Q2.9577621875,5.54036701171875,3.0714121875,5.3702670117187505Q3.1850621875,5.2001770117187505,3.3069321875,5.03585701171875Q3.4287921875,4.87154701171875,3.5585721875000003,4.7134070117187505Q3.6883521875,4.555277011718751,3.8257321875,4.40369701171875Q3.9631121875,4.252117011718751,4.1077721875,4.10746701171875Q4.252422187500001,3.96280701171875,4.4040021875,3.82542701171875Q4.555582187500001,3.68804701171875,4.7137121875000005,3.5582670117187503Q4.8718521875,3.42848701171875,5.0361621875,3.30662701171875Q5.2004821875000005,3.18475701171875,5.3705721875000005,3.07110701171875Q5.5406721875,2.95745701171875,5.7161321875,2.85227701171875Q5.8916021875,2.74710701171875,6.0720221875,2.6506760117187502Q6.2524321875,2.55424201171875,6.4373621875,2.46677601171875Q6.6222921875,2.37931001171875,6.8112921875,2.30102401171875Q7.0002921875,2.22273801171875,7.1929121875,2.15382001171875Q7.3855221875,2.08490201171875,7.5812821875,2.02551801171875Q7.7770521875,1.96613301171875,7.9754921875,1.91642701171875Q8.1739321875,1.86672001171875,8.3745721875,1.82681001171875Q8.5752121875,1.78690001171875,8.777572187499999,1.75688271171875Q8.979932187500001,1.72686581171875,9.1835121875,1.70681431171875Q9.3871021875,1.68676271171875,9.5914321875,1.67672491171875Q9.7957521875,1.66668701171875,10.0003221875,1.66668701171875Q10.2048921875,1.66668701171875,10.4092221875,1.67672491171875Q10.6135521875,1.68676271171875,10.8171321875,1.70681431171875Q11.0207221875,1.72686581171875,11.2230821875,1.75688271171875Q11.4254321875,1.78690001171875,11.6260821875,1.82681001171875Q11.8266921875,1.86672001171875,12.0251921875,1.91642701171875Q12.2235921875,1.96613301171875,12.4193921875,2.02551801171875Q12.6150921875,2.08490201171875,12.8076921875,2.15382001171875Q13.0003921875,2.22273801171875,13.1893921875,2.30102401171875Q13.3783921875,2.37931001171875,13.5632921875,2.46677601171875Q13.7481921875,2.55424201171875,13.9285921875,2.6506760117187502Q14.1090921875,2.74710701171875,14.2844921875,2.85227701171875Q14.4599921875,2.95745701171875,14.6300921875,3.07110701171875Q14.8001921875,3.18475701171875,14.9644921875,3.30662701171875Q15.1287921875,3.42848701171875,15.2868921875,3.5582670117187503Q15.4450921875,3.68804701171875,15.5966921875,3.82542701171875Q15.7481921875,3.96280701171875,15.8928921875,4.10746701171875Q16.0374921875,4.252117011718751,16.1748921875,4.40369701171875Q16.3122921875,4.555277011718751,16.442092187500002,4.7134070117187505Q16.571892187499998,4.87154701171875,16.693692187499998,5.03585701171875Q16.815592187500002,5.2001770117187505,16.9291921875,5.3702670117187505Q17.0428921875,5.54036701171875,17.148092187499998,5.71582701171875Q17.253192187499998,5.89129701171875,17.3496921875,6.07171701171875Q17.4460921875,6.25212701171875,17.5335921875,6.43705701171875Q17.6209921875,6.62198701171875,17.6992921875,6.81098701171875Q17.7775921875,6.99998701171875,17.8464921875,7.19260701171875Q17.9153921875,7.38521701171875,17.9747921875,7.58097701171875Q18.0341921875,7.77674701171875,18.0838921875,7.97518701171875Q18.1335921875,8.17362701171875,18.1734921875,8.37426701171875Q18.2133921875,8.57490701171875,18.2434921875,8.777267011718749Q18.2734921875,8.979627011718751,18.2934921875,9.18320701171875Q18.3135921875,9.38679701171875,18.3235921875,9.59112701171875Q18.3336921875,9.79544701171875,18.3336921875,10.00001701171875ZM16.6669921875,10.00001701171875Q16.6669921875,9.83635701171875,16.6589921875,9.67290701171875Q16.6508921875,9.509437011718749,16.6348921875,9.34657701171875Q16.618892187500002,9.183707011718749,16.594792187499998,9.021817011718749Q16.5707921875,8.85992701171875,16.5388921875,8.69941701171875Q16.5069921875,8.53890701171875,16.4671921875,8.380157011718751Q16.4273921875,8.22139701171875,16.379892187499998,8.06478701171875Q16.332392187499998,7.90817701171875,16.277292187500002,7.75408701171875Q16.2221921875,7.59999701171875,16.1594921875,7.44879701171875Q16.0968921875,7.29759701171875,16.0268921875,7.14965701171875Q15.9569921875,7.00170701171875,15.8797921875,6.85737701171875Q15.8026921875,6.71303701171875,15.7184921875,6.57266701171875Q15.6343921875,6.43229701171875,15.5434921875,6.29621701171875Q15.4524921875,6.16013701171875,15.3549921875,6.02868701171875Q15.2575921875,5.89723701171875,15.1536921875,5.77072701171875Q15.0498921875,5.644227011718749,14.9399921875,5.52295701171875Q14.8300921875,5.40169701171875,14.7143921875,5.2859770117187495Q14.5986921875,5.17024701171875,14.4773921875,5.060347011718751Q14.3560921875,4.9504370117187495,14.2295921875,4.846617011718751Q14.1030921875,4.74279701171875,13.9716921875,4.645307011718749Q13.8401921875,4.547817011718751,13.7040921875,4.4568870117187505Q13.5680921875,4.36596701171875,13.4276921875,4.28182701171875Q13.2872921875,4.19769701171875,13.1429921875,4.120547011718751Q12.9985921875,4.04339701171875,12.8506921875,3.97342701171875Q12.7027921875,3.90345701171875,12.5515921875,3.84082701171875Q12.4003921875,3.77819701171875,12.2462921875,3.72305701171875Q12.0921921875,3.66792701171875,11.9355921875,3.62041701171875Q11.7789921875,3.5729070117187502,11.6201921875,3.53314701171875Q11.4614421875,3.49337701171875,11.3009221875,3.46144701171875Q11.1404121875,3.4295270117187497,10.9785321875,3.40550701171875Q10.8166421875,3.38149701171875,10.6537721875,3.3654570117187497Q10.4909021875,3.3494170117187503,10.3274421875,3.34138701171875Q10.1639821875,3.33335701171875,10.0003221875,3.33335701171875Q9.8366621875,3.33335701171875,9.6732121875,3.34138701171875Q9.509742187499999,3.3494170117187503,9.3468821875,3.3654570117187497Q9.184012187499999,3.38149701171875,9.022122187499999,3.40550701171875Q8.8602321875,3.4295270117187497,8.6997221875,3.46144701171875Q8.5392121875,3.49337701171875,8.380462187500001,3.53314701171875Q8.2217021875,3.5729070117187502,8.0650921875,3.62041701171875Q7.9084821875,3.66792701171875,7.7543921875,3.72305701171875Q7.6003021875,3.77819701171875,7.4491021875,3.84082701171875Q7.2979021875,3.90345701171875,7.1499621875,3.97342701171875Q7.0020121875,4.04339701171875,6.8576821875,4.120547011718751Q6.7133421875,4.19769701171875,6.5729721875,4.28182701171875Q6.4326021875,4.36596701171875,6.2965221875,4.4568870117187505Q6.1604421875,4.547817011718751,6.0289921875,4.645307011718749Q5.8975421875,4.74279701171875,5.7710321875,4.846617011718751Q5.644532187499999,4.9504370117187495,5.5232621875,5.060347011718751Q5.4020021875,5.17024701171875,5.2862821874999995,5.2859770117187495Q5.1705521875,5.40169701171875,5.060652187500001,5.52295701171875Q4.9507421874999995,5.644227011718749,4.846922187500001,5.77072701171875Q4.7431021875,5.89723701171875,4.645612187499999,6.02868701171875Q4.548122187500001,6.16013701171875,4.4571921875000005,6.29621701171875Q4.3662721875,6.43229701171875,4.2821321875,6.57266701171875Q4.1980021875,6.71303701171875,4.120852187500001,6.85737701171875Q4.0437021875,7.00170701171875,3.9737321875,7.14965701171875Q3.9037621875,7.29759701171875,3.8411321875,7.44879701171875Q3.7785021875,7.59999701171875,3.7233621875,7.75408701171875Q3.6682321875,7.90817701171875,3.6207221875,8.06478701171875Q3.5732121875000002,8.22139701171875,3.5334521875,8.380147011718751Q3.4936821875,8.53890701171875,3.4617521875,8.69941701171875Q3.4298321874999997,8.85992701171875,3.4058121875,9.021817011718749Q3.3818021875,9.183707011718749,3.3657621874999997,9.34656701171875Q3.3497221875000003,9.509437011718749,3.3416921875,9.67290701171875Q3.3336621875,9.83635701171875,3.3336621875,10.00001701171875Q3.3336621875,10.16367701171875,3.3416921875,10.32713701171875Q3.3497221875000003,10.49059701171875,3.3657621874999997,10.65346701171875Q3.3818021875,10.81633701171875,3.4058121875,10.97821701171875Q3.4298321874999997,11.14010701171875,3.4617521875,11.30061701171875Q3.4936821875,11.46113701171875,3.5334521875,11.61988701171875Q3.5732121875000002,11.77868701171875,3.6207221875,11.93528701171875Q3.6682321875,12.09188701171875,3.7233621875,12.24598701171875Q3.7785021875,12.40008701171875,3.8411321875,12.55128701171875Q3.9037621875,12.70248701171875,3.9737321875,12.85038701171875Q4.0437021875,12.99828701171875,4.120852187500001,13.14268701171875Q4.1980021875,13.28698701171875,4.2821321875,13.42738701171875Q4.3662721875,13.56778701171875,4.4571921875000005,13.70378701171875Q4.548122187500001,13.83988701171875,4.645612187499999,13.97138701171875Q4.7431021875,14.10278701171875,4.846922187500001,14.22928701171875Q4.9507421874999995,14.35578701171875,5.060652187500001,14.47708701171875Q5.1705521875,14.59838701171875,5.2862821874999995,14.71408701171875Q5.4020021875,14.82978701171875,5.5232621875,14.93968701171875Q5.644532187499999,15.04958701171875,5.7710321875,15.15338701171875Q5.8975421875,15.25728701171875,6.0289921875,15.35468701171875Q6.1604421875,15.45218701171875,6.2965221875,15.54318701171875Q6.4326021875,15.63408701171875,6.5729721875,15.71818701171875Q6.7133421875,15.80238701171875,6.8576821875,15.87948701171875Q7.0020121875,15.95668701171875,7.1499621875,16.02658701171875Q7.2979021875,16.09658701171875,7.4491021875,16.15918701171875Q7.6003021875,16.22188701171875,7.7543921875,16.276987011718752Q7.9084821875,16.332087011718748,8.0650921875,16.379587011718748Q8.2217021875,16.42708701171875,8.380452187500001,16.46688701171875Q8.5392121875,16.50668701171875,8.6997221875,16.53858701171875Q8.8602321875,16.57048701171875,9.022122187499999,16.594487011718748Q9.184012187499999,16.618587011718752,9.3468721875,16.63458701171875Q9.509742187499999,16.65058701171875,9.6732121875,16.65868701171875Q9.8366621875,16.66668701171875,10.0003221875,16.66668701171875Q10.1639821875,16.66668701171875,10.3274421875,16.65868701171875Q10.4909021875,16.65058701171875,10.6537721875,16.63458701171875Q10.8166421875,16.618587011718752,10.9785221875,16.594487011718748Q11.1404121875,16.57048701171875,11.3009221875,16.53858701171875Q11.4614421875,16.50668701171875,11.6201921875,16.46688701171875Q11.7789921875,16.42708701171875,11.9355921875,16.379587011718748Q12.0921921875,16.332087011718748,12.2462921875,16.276987011718752Q12.4003921875,16.22188701171875,12.5515921875,16.15918701171875Q12.7027921875,16.09658701171875,12.8506921875,16.02658701171875Q12.9985921875,15.95668701171875,13.1429921875,15.87948701171875Q13.2872921875,15.80238701171875,13.4276921875,15.71818701171875Q13.5680921875,15.63408701171875,13.7040921875,15.54318701171875Q13.8401921875,15.45218701171875,13.9716921875,15.35468701171875Q14.1030921875,15.25728701171875,14.2295921875,15.15338701171875Q14.3560921875,15.04958701171875,14.4773921875,14.93968701171875Q14.5986921875,14.82978701171875,14.7143921875,14.71408701171875Q14.8300921875,14.59838701171875,14.9399921875,14.47708701171875Q15.0498921875,14.35578701171875,15.1536921875,14.22928701171875Q15.2575921875,14.10278701171875,15.3549921875,13.97138701171875Q15.4524921875,13.83988701171875,15.5434921875,13.70378701171875Q15.6343921875,13.56778701171875,15.7184921875,13.42738701171875Q15.8026921875,13.28698701171875,15.8797921875,13.14268701171875Q15.9569921875,12.99828701171875,16.0268921875,12.85038701171875Q16.0968921875,12.70248701171875,16.1594921875,12.55128701171875Q16.2221921875,12.40008701171875,16.277292187500002,12.24598701171875Q16.332392187499998,12.09188701171875,16.379892187499998,11.93528701171875Q16.4273921875,11.77868701171875,16.4671921875,11.61988701171875Q16.5069921875,11.46113701171875,16.5388921875,11.30061701171875Q16.5707921875,11.14010701171875,16.594792187499998,10.97822701171875Q16.618892187500002,10.81633701171875,16.6348921875,10.65346701171875Q16.6508921875,10.49059701171875,16.6589921875,10.32713701171875Q16.6669921875,10.16367701171875,16.6669921875,10.00001701171875Z" fill="#000000" fill-opacity="1"/></g></g></svg>